<svg width="40" height="40" viewBox="0 0 40 40" fill="none" xmlns="http://www.w3.org/2000/svg">
<path d="M11.75 21.125C12.3713 21.125 12.875 20.6213 12.875 20C12.875 19.3787 12.3713 18.875 11.75 18.875C11.1287 18.875 10.625 19.3787 10.625 20C10.625 20.6213 11.1287 21.125 11.75 21.125Z" stroke="black" stroke-width="2.25" stroke-linecap="round" stroke-linejoin="round"/>
<path d="M20 21.125C20.6213 21.125 21.125 20.6213 21.125 20C21.125 19.3787 20.6213 18.875 20 18.875C19.3787 18.875 18.875 19.3787 18.875 20C18.875 20.6213 19.3787 21.125 20 21.125Z" stroke="black" stroke-width="2.25" stroke-linecap="round" stroke-linejoin="round"/>
<path d="M28.25 21.125C28.8713 21.125 29.375 20.6213 29.375 20C29.375 19.3787 28.8713 18.875 28.25 18.875C27.6287 18.875 27.125 19.3787 27.125 20C27.125 20.6213 27.6287 21.125 28.25 21.125Z" stroke="black" stroke-width="2.25" stroke-linecap="round" stroke-linejoin="round"/>
<rect x="0.5" y="0.5" width="39" height="39" rx="19.5" stroke="#1B1D21"/>
</svg>
